<svg width="200" height="60" viewBox="0 0 200 60" fill="none" xmlns="http://www.w3.org/2000/svg">
  <!-- Background circle for logo mark -->
  <circle cx="30" cy="30" r="25" fill="#2563eb" stroke="#1d4ed8" stroke-width="2"/>
  
  <!-- Cloud icon in the circle -->
  <path d="M20 32c-2.21 0-4-1.79-4-4 0-4.42 3.58-8 8-8s8 3.58 8 8c0 .55-.45 1-1 1s-1-.45-1-1c0-3.31-2.69-6-6-6s-6 2.69-6 6c0 1.1.9 2 2 2h12c1.66 0 3 1.34 3 3s-1.34 3-3 3H20z" fill="white"/>
  <path d="M35 36h-3c-.55 0-1-.45-1-1s.45-1 1-1h3c.55 0 1-.45 1-1s-.45-1-1-1h-8c-.55 0-1-.45-1-1s.45-1 1-1h8c1.66 0 3 1.34 3 3s-1.34 3-3 3z" fill="white"/>
  
  <!-- Company name -->
  <text x="65" y="25" font-family="Arial, sans-serif" font-size="18" font-weight="bold" fill="#1f2937">Fadoni</text>
  <text x="135" y="25" font-family="Arial, sans-serif" font-size="18" font-weight="bold" fill="#2563eb">Tech</text>
  
  <!-- Tagline -->
  <text x="65" y="42" font-family="Arial, sans-serif" font-size="10" fill="#6b7280">Cloud Support & FinOps</text>
</svg>
